# xmcd
#
# Track frame offsets: 
#        150
#        13725
#        30763
#        46406
#        63015
#        78641
#        99018
#        119951
#        134160
#        148172
#
# Disc length: 2077 seconds
#
# Revision: 0
# Processed by: cddbd v1.5.2PL0 Copyright (c) Steve Scherf et al.
# Submitted via: ExactAudioCopy v1.3
#
DISCID=87081b0a
DTITLE=Bennett, Bowtell and Urquhart - Bennett, Bowtell and Urquhart
DYEAR=2016
DGENRE=Country
TTITLE0=I Hear Them All
TTITLE1=Goulburn Valley Woman
TTITLE2=Love of Mine
TTITLE3=Brand New Truth
TTITLE4=The Best Thing
TTITLE5=Hello Blue Sky
TTITLE6=I'm on Your Side (Oh Brother)
TTITLE7=Bring Back Love
TTITLE8=When We're Gone, Long Gone
TTITLE9=Inanay
EXTD=
EXTT0=
EXTT1=
EXTT2=
EXTT3=
EXTT4=
EXTT5=
EXTT6=
EXTT7=
EXTT8=
EXTT9=
PLAYORDER=
